<svg xmlns="http://www.w3.org/2000/svg" width="338" height="385" viewBox="0 0 338 385" version="1.1"><path d="M 167.750 1.662 C 168.438 1.940, 169.563 1.940, 170.250 1.662 C 170.938 1.385, 170.375 1.158, 169 1.158 C 167.625 1.158, 167.063 1.385, 167.750 1.662 M 149.750 8.572 C 146.012 10.600, 146.239 11.445, 150 9.500 C 151.650 8.647, 153 7.735, 153 7.474 C 153 6.831, 152.893 6.867, 149.750 8.572 M 187 8.449 C 187 8.724, 188.350 9.647, 190 10.500 C 191.650 11.353, 193 11.826, 193 11.551 C 193 11.276, 191.650 10.353, 190 9.500 C 188.350 8.647, 187 8.174, 187 8.449 M 136.747 15.878 C 133.034 17.965, 129.659 20.048, 129.247 20.508 C 128.311 21.555, 142.153 14.149, 143.450 12.909 C 145.068 11.361, 143.742 11.949, 136.747 15.878 M 194.500 12.702 C 195.050 13.270, 197.750 14.993, 200.500 16.532 C 203.250 18.070, 205.050 18.865, 204.500 18.298 C 203.950 17.730, 201.250 16.007, 198.500 14.468 C 195.750 12.930, 193.950 12.135, 194.500 12.702 M 211 22.449 C 211 22.724, 212.350 23.647, 214 24.500 C 215.650 25.353, 217 25.826, 217 25.551 C 217 25.276, 215.650 24.353, 214 23.500 C 212.350 22.647, 211 22.174, 211 22.449 M 116.750 27.572 C 113.012 29.600, 113.239 30.445, 117 28.500 C 118.650 27.647, 120 26.735, 120 26.474 C 120 25.831, 119.893 25.867, 116.750 27.572 M 223.500 29.685 C 224.864 31.052, 238.756 38.534, 237.500 37.225 C 236.950 36.652, 233.350 34.495, 229.500 32.433 C 225.650 30.370, 222.950 29.134, 223.500 29.685 M 108.441 32.555 C 106.577 34.049, 106.589 34.067, 108.750 33.020 C 109.987 32.420, 111 31.720, 111 31.465 C 111 30.700, 110.481 30.921, 108.441 32.555 M 103.441 35.555 C 101.577 37.049, 101.589 37.067, 103.750 36.020 C 104.987 35.420, 106 34.720, 106 34.465 C 106 33.700, 105.481 33.921, 103.441 35.555 M 96.750 39.068 C 94.688 40.157, 93 41.271, 93 41.544 C 93 41.817, 94.800 41.122, 97 40 C 99.200 38.878, 101 37.743, 101 37.480 C 101 36.826, 100.993 36.828, 96.750 39.068 M 239 38.430 C 239 38.705, 239.900 39.411, 241 40 C 242.100 40.589, 243 40.845, 243 40.570 C 243 40.295, 242.100 39.589, 241 39 C 239.900 38.411, 239 38.155, 239 38.430 M 244 41.449 C 244 41.724, 245.350 42.647, 247 43.500 C 248.650 44.353, 250 44.826, 250 44.551 C 250 44.276, 248.650 43.353, 247 42.500 C 245.350 41.647, 244 41.174, 244 41.449 M 258 49.449 C 258 49.724, 259.350 50.647, 261 51.500 C 262.650 52.353, 264 52.826, 264 52.551 C 264 52.276, 262.650 51.353, 261 50.500 C 259.350 49.647, 258 49.174, 258 49.449 M 65.747 56.878 C 62.034 58.965, 58.659 61.048, 58.247 61.508 C 57.311 62.555, 71.153 55.149, 72.450 53.909 C 74.068 52.361, 72.742 52.949, 65.747 56.878 M 265.500 53.702 C 266.050 54.270, 268.750 55.993, 271.500 57.532 C 274.250 59.070, 276.050 59.865, 275.500 59.298 C 274.950 58.730, 272.250 57.007, 269.500 55.468 C 266.750 53.930, 264.950 53.135, 265.500 53.702 M 44.441 69.555 C 42.577 71.049, 42.589 71.067, 44.750 70.020 C 45.987 69.420, 47 68.720, 47 68.465 C 47 67.700, 46.481 67.921, 44.441 69.555 M 294.500 70.812 C 301.897 75.260, 309 79.106, 309 78.661 C 309 78.041, 293.361 68.999, 292.297 69.004 C 291.858 69.006, 292.850 69.819, 294.500 70.812 M 37.441 73.555 C 35.577 75.049, 35.589 75.067, 37.750 74.020 C 38.987 73.420, 40 72.720, 40 72.465 C 40 71.700, 39.481 71.921, 37.441 73.555 M 32.441 76.555 C 30.577 78.049, 30.589 78.067, 32.750 77.020 C 33.987 76.420, 35 75.720, 35 75.465 C 35 74.700, 34.481 74.921, 32.441 76.555 M 24.250 81.105 C 21.362 82.788, 19 84.396, 19 84.678 C 19 85.233, 27.893 80.288, 29.450 78.867 C 31.145 77.320, 29.605 77.983, 24.250 81.105 M 315 82.430 C 315 82.705, 315.900 83.411, 317 84 C 318.100 84.589, 319 84.845, 319 84.570 C 319 84.295, 318.100 83.589, 317 83 C 315.900 82.411, 315 82.155, 315 82.430 M 327.031 89.750 C 327.049 90.162, 328.286 91.364, 329.781 92.420 L 332.500 94.339 330.076 91.670 C 327.528 88.864, 326.980 88.519, 327.031 89.750 M 6.924 92.750 L 4.500 95.500 7.250 93.076 C 9.820 90.810, 10.459 90, 9.674 90 C 9.495 90, 8.258 91.237, 6.924 92.750 M 128 95.142 C 123.394 96.478, 119.204 100.562, 117.926 104.958 C 117.246 107.300, 116.999 137.313, 117.199 193.545 C 117.480 272.813, 117.620 278.772, 119.264 281.281 C 123.438 287.650, 122.263 287.500, 168.132 287.500 C 208.754 287.500, 209.927 287.445, 212.676 285.429 C 214.229 284.290, 216.291 281.815, 217.257 279.929 C 218.900 276.724, 218.998 270.849, 218.757 190 C 218.505 105.262, 218.459 103.446, 216.500 100.834 C 211.698 94.434, 212.298 94.518, 170 94.313 C 146.310 94.198, 130.154 94.517, 128 95.142 M 333.204 96.955 C 333.875 98.030, 334.564 98.769, 334.736 98.598 C 335.328 98.005, 333.782 95, 332.885 95 C 332.389 95, 332.532 95.880, 333.204 96.955 M 2.583 97.643 C 1.631 100.126, 2.681 100.465, 3.954 98.086 C 4.568 96.938, 4.653 96, 4.142 96 C 3.632 96, 2.930 96.739, 2.583 97.643 M 335.500 192.500 C 335.500 243.270, 335.837 284.600, 336.250 284.345 C 336.663 284.091, 337.109 245.096, 337.241 197.691 L 337.483 111.500 338 196 L 338.517 280.500 338.617 191 C 338.671 141.775, 338.394 103.300, 338 105.500 L 337.284 109.500 337.142 105.309 C 337.064 103.004, 336.663 100.909, 336.250 100.655 C 335.837 100.400, 335.500 141.730, 335.500 192.500 M 150.249 107.250 C 150.556 108.173, 155.286 108.571, 168.332 108.773 C 183.609 109.009, 186 108.840, 186 107.523 C 186 106.215, 183.446 106, 167.917 106 C 153.895 106, 149.927 106.281, 150.249 107.250 M 125.655 119.829 C 124.149 121.493, 124 127.768, 124 189.394 C 124 234.175, 124.351 257.787, 125.035 259.066 C 126.033 260.931, 127.567 261, 167.835 261 C 198.986 261, 209.905 260.695, 210.800 259.800 C 211.710 258.890, 212 242.012, 212 189.955 C 212 124.723, 211.909 121.228, 210.171 119.655 C 208.533 118.172, 204.124 118, 167.826 118 C 129.845 118, 127.206 118.114, 125.655 119.829 M 148.243 151.223 C 144.291 153.129, 143.844 157.525, 144.182 191.171 L 144.500 222.842 146.924 225.421 L 149.349 228 167.224 228 C 186.561 228, 190.172 227.220, 191.359 222.790 C 192.159 219.803, 192.159 158.197, 191.359 155.210 C 190.175 150.788, 186.541 149.994, 167.800 150.068 C 157.528 150.108, 149.583 150.577, 148.243 151.223 M 149.688 155.645 C 149.310 156.024, 149 157.158, 149 158.167 C 149 159.880, 150.245 160, 168.070 160 L 187.139 160 186.820 157.750 C 186.503 155.523, 186.314 155.497, 168.438 155.228 C 158.505 155.079, 150.067 155.266, 149.688 155.645 M 149 193.465 C 149 220.584, 149.091 221.979, 150.934 222.965 C 152.990 224.065, 182.705 224.434, 185.418 223.393 C 186.810 222.859, 187 219.317, 187 193.893 L 187 165 168 165 L 149 165 149 193.465 M 164.655 269.829 C 162.719 271.968, 162.484 276.084, 164.200 277.800 C 167.164 280.764, 174 277.884, 174 273.671 C 174 271.438, 170.456 268, 168.155 268 C 167.140 268, 165.565 268.823, 164.655 269.829 M 2.838 286.500 C 4.356 289.489, 6.937 292.641, 6.932 291.500 C 6.930 290.950, 5.779 289.150, 4.375 287.500 C 2.971 285.850, 2.279 285.400, 2.838 286.500 M 332.638 288.500 C 332.322 289.325, 332.451 290, 332.924 290 C 333.398 290, 334.045 289.325, 334.362 288.500 C 334.678 287.675, 334.549 287, 334.076 287 C 333.602 287, 332.955 287.675, 332.638 288.500 M 325.500 295.625 C 323.702 297.155, 323.334 297.763, 324.582 297.143 C 326.415 296.233, 329.853 292.941, 328.872 293.036 C 328.668 293.056, 327.150 294.221, 325.500 295.625 M 14.500 297.515 C 16.738 299.352, 25.067 303.756, 23.500 302.275 C 22.950 301.755, 20.250 300.102, 17.500 298.602 C 14.750 297.101, 13.400 296.613, 14.500 297.515 M 312.441 303.555 C 310.577 305.049, 310.589 305.067, 312.750 304.020 C 313.988 303.420, 315 302.720, 315 302.465 C 315 301.700, 314.481 301.921, 312.441 303.555 M 25.500 303.685 C 26.864 305.052, 40.756 312.534, 39.500 311.225 C 38.950 310.652, 35.350 308.495, 31.500 306.433 C 27.650 304.370, 24.950 303.134, 25.500 303.685 M 303.441 308.555 C 301.577 310.049, 301.589 310.067, 303.750 309.020 C 304.988 308.420, 306 307.720, 306 307.465 C 306 306.700, 305.481 306.921, 303.441 308.555 M 287.750 317.572 C 284.012 319.600, 284.239 320.445, 288 318.500 C 289.650 317.647, 291 316.735, 291 316.474 C 291 315.831, 290.893 315.867, 287.750 317.572 M 49 317.430 C 49 317.705, 49.900 318.411, 51 319 C 52.100 319.589, 53 319.845, 53 319.570 C 53 319.295, 52.100 318.589, 51 318 C 49.900 317.411, 49 317.155, 49 317.430 M 275.750 324.572 C 272.012 326.600, 272.239 327.445, 276 325.500 C 277.650 324.647, 279 323.735, 279 323.474 C 279 322.831, 278.893 322.867, 275.750 324.572 M 63 325.459 C 63 325.734, 64.800 326.878, 67 328 C 69.200 329.122, 71 329.816, 71 329.541 C 71 329.266, 69.200 328.122, 67 327 C 64.800 325.878, 63 325.184, 63 325.459 M 265.441 330.555 C 263.577 332.049, 263.589 332.067, 265.750 331.020 C 266.988 330.420, 268 329.720, 268 329.465 C 268 328.700, 267.481 328.921, 265.441 330.555 M 253.441 337.555 C 251.577 339.049, 251.589 339.067, 253.750 338.020 C 254.988 337.420, 256 336.720, 256 336.465 C 256 335.700, 255.481 335.921, 253.441 337.555 M 87 339.449 C 87 339.724, 88.350 340.647, 90 341.500 C 91.650 342.353, 93 342.826, 93 342.551 C 93 342.276, 91.650 341.353, 90 340.500 C 88.350 339.647, 87 339.174, 87 339.449 M 94 343.430 C 94 343.705, 94.900 344.411, 96 345 C 97.100 345.589, 98 345.845, 98 345.570 C 98 345.295, 97.100 344.589, 96 344 C 94.900 343.411, 94 343.155, 94 343.430 M 236.750 347.068 C 234.688 348.157, 233 349.271, 233 349.544 C 233 349.817, 234.800 349.122, 237 348 C 239.200 346.878, 241 345.743, 241 345.480 C 241 344.826, 240.993 344.828, 236.750 347.068 M 99 346.459 C 99 346.734, 100.800 347.878, 103 349 C 105.200 350.122, 107 350.816, 107 350.541 C 107 350.266, 105.200 349.122, 103 348 C 100.800 346.878, 99 346.184, 99 346.459 M 123 360.430 C 123 360.705, 123.900 361.411, 125 362 C 126.100 362.589, 127 362.845, 127 362.570 C 127 362.295, 126.100 361.589, 125 361 C 123.900 360.411, 123 360.155, 123 360.430 M 203.750 366.068 C 201.688 367.157, 200 368.271, 200 368.544 C 200 368.817, 201.800 368.122, 204 367 C 206.200 365.878, 208 364.743, 208 364.480 C 208 363.826, 207.993 363.828, 203.750 366.068 M 132 365.449 C 132 365.724, 133.350 366.647, 135 367.500 C 136.650 368.353, 138 368.826, 138 368.551 C 138 368.276, 136.650 367.353, 135 366.500 C 133.350 365.647, 132 365.174, 132 365.449 M 195.750 370.572 C 192.012 372.600, 192.239 373.445, 196 371.500 C 197.650 370.647, 199 369.735, 199 369.474 C 199 368.831, 198.893 368.867, 195.750 370.572 M 141 370.430 C 141 370.705, 141.900 371.411, 143 372 C 144.100 372.589, 145 372.845, 145 372.570 C 145 372.295, 144.100 371.589, 143 371 C 141.900 370.411, 141 370.155, 141 370.430" stroke="none" fill="#f8f8f8" fill-rule="evenodd"/><path d="M 160 3.850 C 155.803 5.973, 132.532 19.103, 125.500 23.315 C 116.292 28.830, 72.067 54.358, 62 59.968 C 49.860 66.734, 18.525 85.232, 13.034 88.874 C 10.027 90.868, 6.202 94.525, 4.534 97 L 1.500 101.500 1.500 192.528 L 1.500 283.555 4.591 287.759 C 8.713 293.363, 10.370 294.573, 25.523 303.036 C 32.660 307.022, 40.300 311.502, 42.500 312.991 C 44.700 314.481, 52.800 319.210, 60.500 323.500 C 68.200 327.791, 76.300 332.440, 78.500 333.831 C 80.700 335.223, 89.700 340.498, 98.500 345.555 C 107.300 350.611, 118.100 356.863, 122.500 359.447 C 159.831 381.371, 165.322 383.928, 172.233 382.602 C 176.058 381.869, 183.170 378.351, 195 371.341 C 199.675 368.570, 208.675 363.362, 215 359.767 C 221.325 356.172, 232.125 349.947, 239 345.935 C 252.567 338.016, 285.218 319.125, 310.204 304.737 C 324.336 296.599, 329.302 292.970, 334 287.345 C 335.305 285.783, 335.534 273.607, 335.765 193.639 L 336.031 101.728 333.611 97.614 C 330.169 91.763, 327.814 89.996, 309.148 79.262 C 299.991 73.997, 290.821 68.634, 288.770 67.345 C 286.718 66.055, 284.843 65, 284.603 65 C 284.362 65, 280.641 62.913, 276.333 60.362 C 272.025 57.812, 258.150 49.775, 245.500 42.502 C 214.670 24.778, 197.315 14.742, 188.671 9.640 C 175.272 1.730, 167.353 0.131, 160 3.850 M 128 95.142 C 123.394 96.478, 119.204 100.562, 117.926 104.958 C 117.246 107.300, 116.999 137.313, 117.199 193.545 C 117.480 272.813, 117.620 278.772, 119.264 281.281 C 123.438 287.650, 122.263 287.500, 168.132 287.500 C 208.754 287.500, 209.927 287.445, 212.676 285.429 C 214.229 284.290, 216.291 281.815, 217.257 279.929 C 218.900 276.724, 218.998 270.849, 218.757 190 C 218.505 105.262, 218.459 103.446, 216.500 100.834 C 211.698 94.434, 212.298 94.518, 170 94.313 C 146.310 94.198, 130.154 94.517, 128 95.142 M 150.249 107.250 C 150.556 108.173, 155.286 108.571, 168.332 108.773 C 183.609 109.009, 186 108.840, 186 107.523 C 186 106.215, 183.446 106, 167.917 106 C 153.895 106, 149.927 106.281, 150.249 107.250 M 125.655 119.829 C 124.149 121.493, 124 127.768, 124 189.394 C 124 234.175, 124.351 257.787, 125.035 259.066 C 126.033 260.931, 127.567 261, 167.835 261 C 198.986 261, 209.905 260.695, 210.800 259.800 C 211.710 258.890, 212 242.012, 212 189.955 C 212 124.723, 211.909 121.228, 210.171 119.655 C 208.533 118.172, 204.124 118, 167.826 118 C 129.845 118, 127.206 118.114, 125.655 119.829 M 148.243 151.223 C 144.291 153.129, 143.844 157.525, 144.182 191.171 L 144.500 222.842 146.924 225.421 L 149.349 228 167.224 228 C 186.561 228, 190.172 227.220, 191.359 222.790 C 192.159 219.803, 192.159 158.197, 191.359 155.210 C 190.175 150.788, 186.541 149.994, 167.800 150.068 C 157.528 150.108, 149.583 150.577, 148.243 151.223 M 149.688 155.645 C 149.310 156.024, 149 157.158, 149 158.167 C 149 159.880, 150.245 160, 168.070 160 L 187.139 160 186.820 157.750 C 186.503 155.523, 186.314 155.497, 168.438 155.228 C 158.505 155.079, 150.067 155.266, 149.688 155.645 M 149 193.465 C 149 220.584, 149.091 221.979, 150.934 222.965 C 152.990 224.065, 182.705 224.434, 185.418 223.393 C 186.810 222.859, 187 219.317, 187 193.893 L 187 165 168 165 L 149 165 149 193.465 M 164.655 269.829 C 162.719 271.968, 162.484 276.084, 164.200 277.800 C 167.164 280.764, 174 277.884, 174 273.671 C 174 271.438, 170.456 268, 168.155 268 C 167.140 268, 165.565 268.823, 164.655 269.829" stroke="none" fill="#343444" fill-rule="evenodd"/></svg>